<svg xmlns="http://www.w3.org/2000/svg" viewBox="0 0 128 128" width="100%" height="100%" fill="none">
  <!-- Kimo Emoji: Dancing Frog -->
  <!-- Sparkles surrounding -->
  <path d="M22 28 L24 34 L30 36 L24 38 L22 44 L20 38 L14 36 L20 34 Z" fill="#FFD166"/>
  <path d="M106 28 L108 34 L114 36 L108 38 L106 44 L104 38 L98 36 L104 34 Z" fill="#FFD166"/>
  <!-- Frog Head Outline tilted playfully -->
  <g transform="rotate(-6 64 64)">
    <path d="M24 64 C24 44 32 38 42 38 C48 38 52 42 56 46 C60 46 68 46 72 46 C76 42 80 38 86 38 C96 38 104 44 104 64 C104 90 92 108 64 108 C36 108 24 90 24 64 Z" 
          fill="#AACC00" stroke="#1E1F24" stroke-width="4.5" stroke-linejoin="round"/>
    <circle cx="44" cy="38" r="14" fill="#AACC00" stroke="#1E1F24" stroke-width="4"/>
    <circle cx="44" cy="36" r="6.5" fill="#1E1F24"/>
    <circle cx="46" cy="34" r="2.2" fill="#FFFFFF"/>
    <circle cx="84" cy="38" r="14" fill="#AACC00" stroke="#1E1F24" stroke-width="4"/>
    <circle cx="84" cy="36" r="6.5" fill="#1E1F24"/>
    <circle cx="86" cy="34" r="2.2" fill="#FFFFFF"/>
    <ellipse cx="34" cy="68" rx="8" ry="5" fill="#FF8BA7" fill-opacity="0.8"/>
    <ellipse cx="94" cy="68" rx="8" ry="5" fill="#FF8BA7" fill-opacity="0.8"/>
    <path d="M44 70 C44 70 52 90 64 90 C76 90 84 70 84 70 Z" fill="#FF5E7E" stroke="#1E1F24" stroke-width="3.5"/>
  </g>
</svg>
