<svg xmlns="http://www.w3.org/2000/svg" viewBox="0 0 128 128" width="100%" height="100%" fill="none">
  <!-- Kimo Emoji: Folded / Praying Hands -->
  <!-- Left Hand -->
  <path d="M40 108 L58 54 C60 46 64 46 64 54 L64 108 Z" fill="#FFE5D9" stroke="#1E1F24" stroke-width="4" stroke-linejoin="round"/>
  <!-- Right Hand -->
  <path d="M88 108 L70 54 C68 46 64 46 64 54 L64 108 Z" fill="#FFE5D9" stroke="#1E1F24" stroke-width="4" stroke-linejoin="round"/>
  <!-- Thumbs crossing -->
  <path d="M52 86 C46 80 44 88 50 94" stroke="#1E1F24" stroke-width="3.5" stroke-linecap="round"/>
  <path d="M76 86 C82 80 84 88 78 94" stroke="#1E1F24" stroke-width="3.5" stroke-linecap="round"/>
  <!-- Sleeves at base -->
  <rect x="36" y="104" width="24" height="10" rx="3" fill="#3A86FF" stroke="#1E1F24" stroke-width="3"/>
  <rect x="68" y="104" width="24" height="10" rx="3" fill="#3A86FF" stroke="#1E1F24" stroke-width="3"/>
  <!-- Golden Radiance Glow -->
  <path d="M64 20 L64 32" stroke="#FFD166" stroke-width="3.5" stroke-linecap="round"/>
  <path d="M44 26 L52 36" stroke="#FFD166" stroke-width="3.5" stroke-linecap="round"/>
  <path d="M84 26 L76 36" stroke="#FFD166" stroke-width="3.5" stroke-linecap="round"/>
</svg>
